<mxfile host="65bd71144e">
    <diagram id="dGWxvdTnYvXBGtlKxTfF" name="ページ1">
        <mxGraphModel dx="296" dy="538" grid="1" gridSize="10" guides="1" tooltips="1" connect="1" arrows="1" fold="1" page="1" pageScale="1" pageWidth="827" pageHeight="1169" math="0" shadow="0">
            <root>
                <mxCell id="0"/>
                <mxCell id="1" parent="0"/>
                <mxCell id="2" value="対戦 (開始)" style="html=1;" parent="1" vertex="1">
                    <mxGeometry x="240" y="280" width="110" height="50" as="geometry"/>
                </mxCell>
                <mxCell id="3" value="盤面" style="html=1;" vertex="1" parent="1">
                    <mxGeometry x="640" y="330" width="110" height="50" as="geometry"/>
                </mxCell>
                <mxCell id="4" value="石" style="html=1;" vertex="1" parent="1">
                    <mxGeometry x="850" y="450" width="110" height="50" as="geometry"/>
                </mxCell>
                <mxCell id="5" value="勝敗" style="html=1;" vertex="1" parent="1">
                    <mxGeometry x="240" y="430" width="110" height="50" as="geometry"/>
                </mxCell>
                <mxCell id="6" value="プレイヤー" style="html=1;" vertex="1" parent="1">
                    <mxGeometry x="40" y="280" width="110" height="50" as="geometry"/>
                </mxCell>
                <mxCell id="7" value="" style="endArrow=none;dashed=1;html=1;exitX=0;exitY=0.5;exitDx=0;exitDy=0;exitPerimeter=0;" edge="1" parent="1" source="8" target="4">
                    <mxGeometry width="50" height="50" relative="1" as="geometry">
                        <mxPoint x="970" y="560" as="sourcePoint"/>
                        <mxPoint x="910" y="510" as="targetPoint"/>
                    </mxGeometry>
                </mxCell>
                <mxCell id="8" value="石の種類&lt;br&gt;・空&lt;br&gt;・黒&lt;br&gt;・白" style="shape=note;whiteSpace=wrap;html=1;backgroundOutline=1;darkOpacity=0.05;fillColor=#ffe6cc;strokeColor=#d79b00;align=left;" vertex="1" parent="1">
                    <mxGeometry x="1010" y="515" width="80" height="60" as="geometry"/>
                </mxCell>
                <mxCell id="10" value="" style="endArrow=none;html=1;edgeStyle=orthogonalEdgeStyle;" edge="1" parent="1">
                    <mxGeometry relative="1" as="geometry">
                        <mxPoint x="150" y="310" as="sourcePoint"/>
                        <mxPoint x="240" y="310" as="targetPoint"/>
                    </mxGeometry>
                </mxCell>
                <mxCell id="11" value="1" style="edgeLabel;resizable=0;html=1;align=left;verticalAlign=bottom;" connectable="0" vertex="1" parent="10">
                    <mxGeometry x="-1" relative="1" as="geometry"/>
                </mxCell>
                <mxCell id="13" value="" style="endArrow=none;html=1;edgeStyle=orthogonalEdgeStyle;entryX=0.5;entryY=0;entryDx=0;entryDy=0;" edge="1" parent="1" target="5">
                    <mxGeometry relative="1" as="geometry">
                        <mxPoint x="294.5" y="330" as="sourcePoint"/>
                        <mxPoint x="295" y="420" as="targetPoint"/>
                    </mxGeometry>
                </mxCell>
                <mxCell id="14" value="1" style="edgeLabel;resizable=0;html=1;align=left;verticalAlign=bottom;" connectable="0" vertex="1" parent="13">
                    <mxGeometry x="-1" relative="1" as="geometry"/>
                </mxCell>
                <mxCell id="15" value="0..1" style="text;html=1;align=center;verticalAlign=middle;resizable=0;points=[];autosize=1;strokeColor=none;fillColor=none;" vertex="1" parent="1">
                    <mxGeometry x="260" y="410" width="40" height="20" as="geometry"/>
                </mxCell>
                <mxCell id="16" value="ターン" style="html=1;" vertex="1" parent="1">
                    <mxGeometry x="440" y="280" width="110" height="50" as="geometry"/>
                </mxCell>
                <mxCell id="17" value="" style="endArrow=none;html=1;edgeStyle=orthogonalEdgeStyle;" edge="1" parent="1">
                    <mxGeometry relative="1" as="geometry">
                        <mxPoint x="350" y="310" as="sourcePoint"/>
                        <mxPoint x="440" y="310" as="targetPoint"/>
                    </mxGeometry>
                </mxCell>
                <mxCell id="18" value="1" style="edgeLabel;resizable=0;html=1;align=left;verticalAlign=bottom;" connectable="0" vertex="1" parent="17">
                    <mxGeometry x="-1" relative="1" as="geometry"/>
                </mxCell>
                <mxCell id="21" value="" style="endArrow=none;html=1;fontSize=11;entryX=0;entryY=0;entryDx=0;entryDy=0;" edge="1" parent="1" target="3">
                    <mxGeometry relative="1" as="geometry">
                        <mxPoint x="550" y="310" as="sourcePoint"/>
                        <mxPoint x="710" y="310" as="targetPoint"/>
                    </mxGeometry>
                </mxCell>
                <mxCell id="22" value="1" style="edgeLabel;resizable=0;html=1;align=left;verticalAlign=bottom;fontSize=11;" connectable="0" vertex="1" parent="21">
                    <mxGeometry x="-1" relative="1" as="geometry"/>
                </mxCell>
                <mxCell id="23" value="1" style="edgeLabel;resizable=0;html=1;align=right;verticalAlign=bottom;fontSize=11;" connectable="0" vertex="1" parent="21">
                    <mxGeometry x="1" relative="1" as="geometry"/>
                </mxCell>
                <mxCell id="27" value="マス目" style="html=1;" vertex="1" parent="1">
                    <mxGeometry x="850" y="330" width="110" height="50" as="geometry"/>
                </mxCell>
                <mxCell id="34" value="" style="endArrow=none;html=1;fontSize=11;" edge="1" parent="1">
                    <mxGeometry relative="1" as="geometry">
                        <mxPoint x="750" y="355" as="sourcePoint"/>
                        <mxPoint x="850" y="354.81" as="targetPoint"/>
                    </mxGeometry>
                </mxCell>
                <mxCell id="35" value="1" style="edgeLabel;resizable=0;html=1;align=left;verticalAlign=bottom;fontSize=11;" connectable="0" vertex="1" parent="34">
                    <mxGeometry x="-1" relative="1" as="geometry"/>
                </mxCell>
                <mxCell id="36" value="*" style="edgeLabel;resizable=0;html=1;align=right;verticalAlign=bottom;fontSize=11;" connectable="0" vertex="1" parent="34">
                    <mxGeometry x="1" relative="1" as="geometry">
                        <mxPoint x="-10" as="offset"/>
                    </mxGeometry>
                </mxCell>
                <mxCell id="38" value="*" style="text;html=1;align=center;verticalAlign=middle;resizable=0;points=[];autosize=1;strokeColor=none;fillColor=none;fontSize=11;" vertex="1" parent="1">
                    <mxGeometry x="420" y="290" width="20" height="20" as="geometry"/>
                </mxCell>
                <mxCell id="41" value="*" style="text;html=1;align=center;verticalAlign=middle;resizable=0;points=[];autosize=1;strokeColor=none;fillColor=none;fontSize=11;" vertex="1" parent="1">
                    <mxGeometry x="220" y="295" width="20" height="20" as="geometry"/>
                </mxCell>
                <mxCell id="43" value="" style="endArrow=none;html=1;exitX=0.455;exitY=1.014;exitDx=0;exitDy=0;exitPerimeter=0;" edge="1" parent="1" source="27">
                    <mxGeometry relative="1" as="geometry">
                        <mxPoint x="900" y="380" as="sourcePoint"/>
                        <mxPoint x="900" y="450" as="targetPoint"/>
                    </mxGeometry>
                </mxCell>
                <mxCell id="46" value="1" style="text;html=1;align=center;verticalAlign=middle;resizable=0;points=[];autosize=1;strokeColor=none;fillColor=none;fontSize=11;" vertex="1" parent="1">
                    <mxGeometry x="880" y="430" width="20" height="20" as="geometry"/>
                </mxCell>
                <mxCell id="47" value="手" style="html=1;" vertex="1" parent="1">
                    <mxGeometry x="620" y="170" width="110" height="50" as="geometry"/>
                </mxCell>
                <mxCell id="48" value="" style="endArrow=none;html=1;fontSize=11;entryX=0;entryY=1;entryDx=0;entryDy=0;" edge="1" parent="1" target="47">
                    <mxGeometry relative="1" as="geometry">
                        <mxPoint x="550" y="280" as="sourcePoint"/>
                        <mxPoint x="640" y="300" as="targetPoint"/>
                    </mxGeometry>
                </mxCell>
                <mxCell id="49" value="1" style="edgeLabel;resizable=0;html=1;align=left;verticalAlign=bottom;fontSize=11;" connectable="0" vertex="1" parent="48">
                    <mxGeometry x="-1" relative="1" as="geometry"/>
                </mxCell>
                <mxCell id="50" value="1" style="edgeLabel;resizable=0;html=1;align=right;verticalAlign=bottom;fontSize=11;" connectable="0" vertex="1" parent="48">
                    <mxGeometry x="1" relative="1" as="geometry"/>
                </mxCell>
            </root>
        </mxGraphModel>
    </diagram>
</mxfile>
